<?xml version="1.0" encoding="utf-8"?>
<!-- Generator: Adobe Illustrator 22.0.1, SVG Export Plug-In . SVG Version: 6.00 Build 0)  -->
<svg version="1.1" id="Calque_1" xmlns="http://www.w3.org/2000/svg" xmlns:xlink="http://www.w3.org/1999/xlink" x="0px" y="0px"
	 viewBox="0 0 50 50" style="enable-background:new 0 0 50 50;" xml:space="preserve">
<style type="text/css">
	.st0{fill:#F9B224;}
</style>
<path class="st0" d="M21.4,34.2c-0.2,0.4-0.3,0.9-0.3,1.4c0,2.1,1.7,3.9,3.9,3.9s3.9-1.7,3.9-3.9c0-0.5-0.1-1-0.3-1.4H21.4z"/>
<path class="st0" d="M38.3,32.2H11.7v-2.1c0-1.5,0.5-2.9,1.4-4.1l3.4-4.2c0.9-1.1,1.3-2.4,1.3-3.8v-3c0-3.9,3.2-7,7-7h0
	c3.9,0,7,3.2,7,7v2.9c0,1.4,0.5,2.8,1.4,3.9l3.4,4.2c1,1.2,1.5,2.7,1.5,4.2V32.2z"/>
</svg>
