<?xml version="1.0" encoding="utf-8"?>
<!-- Generator: Adobe Illustrator 22.1.0, SVG Export Plug-In . SVG Version: 6.00 Build 0)  -->
<svg version="1.1" id="Calque_1" xmlns="http://www.w3.org/2000/svg" xmlns:xlink="http://www.w3.org/1999/xlink" x="0px" y="0px"
	 viewBox="0 0 50 50" style="enable-background:new 0 0 50 50;" xml:space="preserve">
<style type="text/css">
	.st0{fill:none;stroke:#000000;stroke-linecap:round;stroke-linejoin:round;stroke-miterlimit:10;}
	.st1{fill:#6F81A1;}
</style>
<path class="st0" d="M34.7,1657H15.3c-2.8,0-5.1-2.3-5.1-5.1v-14.3h29.4v14.3C39.7,1654.7,37.4,1657,34.7,1657z"/>
<line class="st0" x1="19.3" y1="1661.1" x2="30.7" y2="1661.1"/>
<g>
	<path class="st1" d="M12.2,36.9v1.2c0,0.7,0.6,1.3,1.3,1.3h3.4c0.7,0,1.3-0.6,1.3-1.3v-1.2H12.2z"/>
	<path class="st1" d="M16.8,10.5h-3.4c-0.7,0-1.3,0.6-1.3,1.3V35h6V11.8C18.2,11.1,17.6,10.5,16.8,10.5z M17.4,14.6h-4.4v-1.3h4.4
		V14.6z"/>
</g>
<g>
	<path class="st1" d="M23.6,37.3l0.3,1.2c0.1,0.7,0.8,1.2,1.6,1l3.3-0.7c0.7-0.1,1.2-0.8,1-1.6l-0.3-1.2L23.6,37.3z"/>
	<path class="st1" d="M22.9,10.5l-3.3,0.7c-0.7,0.1-1.2,0.8-1,1.6l4.7,22.7l5.9-1.2l-4.7-22.7C24.3,10.8,23.6,10.3,22.9,10.5z
		 M24.2,14.3l-4.3,0.9L19.6,14l4.3-0.9L24.2,14.3z"/>
</g>
<g>
	<path class="st1" d="M31.7,37.3l0.3,1.2c0.2,0.7,0.9,1.1,1.6,0.9l3.2-0.9c0.7-0.2,1.1-0.9,0.9-1.6l-0.3-1.2L31.7,37.3z"/>
	<path class="st1" d="M29,10.6l-3.2,0.9c-0.7,0.2-1.1,0.9-0.9,1.6l6.3,22.3l5.8-1.6l-6.3-22.3C30.4,10.8,29.7,10.4,29,10.6z
		 M30.6,14.4l-4.3,1.2L26,14.3l4.3-1.2L30.6,14.4z"/>
</g>
</svg>
