<?xml version="1.0" encoding="utf-8"?>
<!-- Generator: Adobe Illustrator 22.1.0, SVG Export Plug-In . SVG Version: 6.00 Build 0)  -->
<svg version="1.1" id="Calque_1" xmlns="http://www.w3.org/2000/svg" xmlns:xlink="http://www.w3.org/1999/xlink" x="0px" y="0px"
	 viewBox="0 0 50 50" style="enable-background:new 0 0 50 50;" xml:space="preserve">
<style type="text/css">
	.st0{fill:none;stroke:#5E7C88;stroke-linecap:round;stroke-linejoin:round;stroke-miterlimit:10;}
	.st1{fill:#6F81A1;}
</style>
<path class="st0" d="M34.7,1657H15.3c-2.8,0-5.1-2.3-5.1-5.1v-14.3h29.4v14.3C39.7,1654.7,37.4,1657,34.7,1657z"/>
<line class="st0" x1="19.3" y1="1661.1" x2="30.7" y2="1661.1"/>
<path class="st1" d="M25,6.3c-8.4,0-15.3,6.9-15.3,15.3c0,10.9,15.3,22,15.3,22s15.3-11.1,15.3-22C40.3,13.2,33.4,6.3,25,6.3z
	 M25,25c-2.3,0-4.1-1.8-4.1-4.1s1.8-4.1,4.1-4.1s4.1,1.8,4.1,4.1S27.3,25,25,25z"/>
</svg>
